<mxfile host="app.diagrams.net" agent="Mozilla/5.0 (Windows NT 10.0; Win64; x64) AppleWebKit/537.36 (KHTML, like Gecko) Chrome/136.0.0.0 Safari/537.36" version="27.1.0">
  <diagram name="Page-1" id="Kq4qgJ1AlV-2hDfU7m0v">
    <mxGraphModel dx="4528" dy="1502" grid="1" gridSize="10" guides="1" tooltips="1" connect="1" arrows="1" fold="1" page="1" pageScale="1" pageWidth="850" pageHeight="1100" math="0" shadow="0">
      <root>
        <mxCell id="0" />
        <mxCell id="1" parent="0" />
        <mxCell id="FmT7gTH9NCa0adIjX3tE-2" value="patient" style="whiteSpace=wrap;html=1;align=center;" vertex="1" parent="1">
          <mxGeometry x="-30" y="500" width="100" height="40" as="geometry" />
        </mxCell>
        <mxCell id="FmT7gTH9NCa0adIjX3tE-3" value="name" style="ellipse;whiteSpace=wrap;html=1;align=center;" vertex="1" parent="1">
          <mxGeometry x="-180" y="540" width="100" height="40" as="geometry" />
        </mxCell>
        <mxCell id="FmT7gTH9NCa0adIjX3tE-4" value="p_id" style="ellipse;whiteSpace=wrap;html=1;align=center;fontStyle=4;" vertex="1" parent="1">
          <mxGeometry x="120" y="415" width="100" height="40" as="geometry" />
        </mxCell>
        <mxCell id="FmT7gTH9NCa0adIjX3tE-5" value="DOB" style="ellipse;whiteSpace=wrap;html=1;align=center;" vertex="1" parent="1">
          <mxGeometry x="-30" y="395" width="100" height="40" as="geometry" />
        </mxCell>
        <mxCell id="FmT7gTH9NCa0adIjX3tE-6" value="gender" style="ellipse;whiteSpace=wrap;html=1;align=center;" vertex="1" parent="1">
          <mxGeometry x="-130" y="585" width="100" height="40" as="geometry" />
        </mxCell>
        <mxCell id="FmT7gTH9NCa0adIjX3tE-7" value="contact" style="ellipse;whiteSpace=wrap;html=1;align=center;fontStyle=0" vertex="1" parent="1">
          <mxGeometry x="-180" y="460" width="100" height="40" as="geometry" />
        </mxCell>
        <mxCell id="FmT7gTH9NCa0adIjX3tE-8" value="address" style="ellipse;whiteSpace=wrap;html=1;align=center;" vertex="1" parent="1">
          <mxGeometry x="-145" y="410" width="100" height="40" as="geometry" />
        </mxCell>
        <mxCell id="FmT7gTH9NCa0adIjX3tE-9" value="" style="endArrow=none;html=1;rounded=0;exitX=1;exitY=1;exitDx=0;exitDy=0;entryX=0.25;entryY=0;entryDx=0;entryDy=0;" edge="1" parent="1" source="FmT7gTH9NCa0adIjX3tE-8" target="FmT7gTH9NCa0adIjX3tE-2">
          <mxGeometry relative="1" as="geometry">
            <mxPoint x="-165" y="555" as="sourcePoint" />
            <mxPoint x="-5" y="555" as="targetPoint" />
          </mxGeometry>
        </mxCell>
        <mxCell id="FmT7gTH9NCa0adIjX3tE-10" value="" style="endArrow=none;html=1;rounded=0;exitX=0.5;exitY=1;exitDx=0;exitDy=0;entryX=0.5;entryY=0;entryDx=0;entryDy=0;" edge="1" parent="1" source="FmT7gTH9NCa0adIjX3tE-5" target="FmT7gTH9NCa0adIjX3tE-2">
          <mxGeometry relative="1" as="geometry">
            <mxPoint x="5" y="415" as="sourcePoint" />
            <mxPoint x="20" y="461" as="targetPoint" />
          </mxGeometry>
        </mxCell>
        <mxCell id="FmT7gTH9NCa0adIjX3tE-11" value="" style="endArrow=none;html=1;rounded=0;exitX=0;exitY=1;exitDx=0;exitDy=0;entryX=1;entryY=0.5;entryDx=0;entryDy=0;" edge="1" parent="1" source="FmT7gTH9NCa0adIjX3tE-2" target="FmT7gTH9NCa0adIjX3tE-3">
          <mxGeometry relative="1" as="geometry">
            <mxPoint x="-85" y="505" as="sourcePoint" />
            <mxPoint x="-70" y="551" as="targetPoint" />
          </mxGeometry>
        </mxCell>
        <mxCell id="FmT7gTH9NCa0adIjX3tE-12" value="" style="endArrow=none;html=1;rounded=0;exitX=0.25;exitY=1;exitDx=0;exitDy=0;entryX=1;entryY=0;entryDx=0;entryDy=0;" edge="1" parent="1" source="FmT7gTH9NCa0adIjX3tE-2" target="FmT7gTH9NCa0adIjX3tE-6">
          <mxGeometry relative="1" as="geometry">
            <mxPoint x="-35" y="565" as="sourcePoint" />
            <mxPoint x="-20" y="611" as="targetPoint" />
          </mxGeometry>
        </mxCell>
        <mxCell id="FmT7gTH9NCa0adIjX3tE-13" value="" style="endArrow=none;html=1;rounded=0;entryX=1;entryY=0.5;entryDx=0;entryDy=0;exitX=0;exitY=0;exitDx=0;exitDy=0;" edge="1" parent="1" source="FmT7gTH9NCa0adIjX3tE-2" target="FmT7gTH9NCa0adIjX3tE-7">
          <mxGeometry relative="1" as="geometry">
            <mxPoint x="110" y="490" as="sourcePoint" />
            <mxPoint x="150" y="611" as="targetPoint" />
          </mxGeometry>
        </mxCell>
        <mxCell id="FmT7gTH9NCa0adIjX3tE-14" value="" style="endArrow=none;html=1;rounded=0;exitX=1;exitY=0;exitDx=0;exitDy=0;entryX=0;entryY=0.5;entryDx=0;entryDy=0;" edge="1" parent="1" source="FmT7gTH9NCa0adIjX3tE-2" target="FmT7gTH9NCa0adIjX3tE-4">
          <mxGeometry relative="1" as="geometry">
            <mxPoint x="145" y="505" as="sourcePoint" />
            <mxPoint x="160" y="551" as="targetPoint" />
          </mxGeometry>
        </mxCell>
        <mxCell id="FmT7gTH9NCa0adIjX3tE-15" value="doctor" style="whiteSpace=wrap;html=1;align=center;" vertex="1" parent="1">
          <mxGeometry x="-45" y="190" width="100" height="40" as="geometry" />
        </mxCell>
        <mxCell id="FmT7gTH9NCa0adIjX3tE-16" value="name" style="ellipse;whiteSpace=wrap;html=1;align=center;" vertex="1" parent="1">
          <mxGeometry x="-175" y="230" width="100" height="40" as="geometry" />
        </mxCell>
        <mxCell id="FmT7gTH9NCa0adIjX3tE-17" value="doc_id" style="ellipse;whiteSpace=wrap;html=1;align=center;fontStyle=4;" vertex="1" parent="1">
          <mxGeometry x="135" y="150" width="100" height="40" as="geometry" />
        </mxCell>
        <mxCell id="FmT7gTH9NCa0adIjX3tE-20" value="contact" style="ellipse;whiteSpace=wrap;html=1;align=center;fontStyle=0" vertex="1" parent="1">
          <mxGeometry x="125" y="270" width="100" height="40" as="geometry" />
        </mxCell>
        <mxCell id="FmT7gTH9NCa0adIjX3tE-21" value="specialization" style="ellipse;whiteSpace=wrap;html=1;align=center;" vertex="1" parent="1">
          <mxGeometry x="-145" y="110" width="100" height="40" as="geometry" />
        </mxCell>
        <mxCell id="FmT7gTH9NCa0adIjX3tE-22" value="" style="endArrow=none;html=1;rounded=0;exitX=1;exitY=1;exitDx=0;exitDy=0;entryX=0;entryY=0;entryDx=0;entryDy=0;" edge="1" parent="1" source="FmT7gTH9NCa0adIjX3tE-21" target="FmT7gTH9NCa0adIjX3tE-15">
          <mxGeometry relative="1" as="geometry">
            <mxPoint x="-185" y="250" as="sourcePoint" />
            <mxPoint x="-25" y="250" as="targetPoint" />
          </mxGeometry>
        </mxCell>
        <mxCell id="FmT7gTH9NCa0adIjX3tE-24" value="" style="endArrow=none;html=1;rounded=0;exitX=0;exitY=1;exitDx=0;exitDy=0;entryX=1;entryY=0.5;entryDx=0;entryDy=0;" edge="1" parent="1" source="FmT7gTH9NCa0adIjX3tE-15" target="FmT7gTH9NCa0adIjX3tE-16">
          <mxGeometry relative="1" as="geometry">
            <mxPoint x="-105" y="200" as="sourcePoint" />
            <mxPoint x="-90" y="246" as="targetPoint" />
          </mxGeometry>
        </mxCell>
        <mxCell id="FmT7gTH9NCa0adIjX3tE-26" value="" style="endArrow=none;html=1;rounded=0;exitX=1;exitY=1;exitDx=0;exitDy=0;entryX=0;entryY=0.5;entryDx=0;entryDy=0;" edge="1" parent="1" source="FmT7gTH9NCa0adIjX3tE-15" target="FmT7gTH9NCa0adIjX3tE-20">
          <mxGeometry relative="1" as="geometry">
            <mxPoint x="115" y="260" as="sourcePoint" />
            <mxPoint x="130" y="306" as="targetPoint" />
          </mxGeometry>
        </mxCell>
        <mxCell id="FmT7gTH9NCa0adIjX3tE-27" value="" style="endArrow=none;html=1;rounded=0;exitX=1;exitY=0;exitDx=0;exitDy=0;entryX=0;entryY=0.5;entryDx=0;entryDy=0;" edge="1" parent="1" source="FmT7gTH9NCa0adIjX3tE-15" target="FmT7gTH9NCa0adIjX3tE-17">
          <mxGeometry relative="1" as="geometry">
            <mxPoint x="125" y="200" as="sourcePoint" />
            <mxPoint x="140" y="246" as="targetPoint" />
          </mxGeometry>
        </mxCell>
        <mxCell id="FmT7gTH9NCa0adIjX3tE-28" value="staff" style="whiteSpace=wrap;html=1;align=center;" vertex="1" parent="1">
          <mxGeometry x="-530" y="820" width="100" height="40" as="geometry" />
        </mxCell>
        <mxCell id="FmT7gTH9NCa0adIjX3tE-29" value="name" style="ellipse;whiteSpace=wrap;html=1;align=center;" vertex="1" parent="1">
          <mxGeometry x="-640" y="870" width="100" height="40" as="geometry" />
        </mxCell>
        <mxCell id="FmT7gTH9NCa0adIjX3tE-30" value="staff_id" style="ellipse;whiteSpace=wrap;html=1;align=center;fontStyle=4;" vertex="1" parent="1">
          <mxGeometry x="-405" y="766" width="100" height="40" as="geometry" />
        </mxCell>
        <mxCell id="FmT7gTH9NCa0adIjX3tE-31" value="role" style="ellipse;whiteSpace=wrap;html=1;align=center;" vertex="1" parent="1">
          <mxGeometry x="-640" y="762" width="100" height="40" as="geometry" />
        </mxCell>
        <mxCell id="FmT7gTH9NCa0adIjX3tE-33" value="contact" style="ellipse;whiteSpace=wrap;html=1;align=center;fontStyle=0" vertex="1" parent="1">
          <mxGeometry x="-405" y="877" width="100" height="40" as="geometry" />
        </mxCell>
        <mxCell id="FmT7gTH9NCa0adIjX3tE-36" value="" style="endArrow=none;html=1;rounded=0;exitX=1;exitY=1;exitDx=0;exitDy=0;entryX=0;entryY=0;entryDx=0;entryDy=0;" edge="1" parent="1" source="FmT7gTH9NCa0adIjX3tE-31" target="FmT7gTH9NCa0adIjX3tE-28">
          <mxGeometry relative="1" as="geometry">
            <mxPoint x="-490" y="740" as="sourcePoint" />
            <mxPoint x="-475" y="786" as="targetPoint" />
          </mxGeometry>
        </mxCell>
        <mxCell id="FmT7gTH9NCa0adIjX3tE-37" value="" style="endArrow=none;html=1;rounded=0;exitX=0;exitY=1;exitDx=0;exitDy=0;entryX=1;entryY=0;entryDx=0;entryDy=0;" edge="1" parent="1" source="FmT7gTH9NCa0adIjX3tE-28" target="FmT7gTH9NCa0adIjX3tE-29">
          <mxGeometry relative="1" as="geometry">
            <mxPoint x="-580" y="830" as="sourcePoint" />
            <mxPoint x="-565" y="876" as="targetPoint" />
          </mxGeometry>
        </mxCell>
        <mxCell id="FmT7gTH9NCa0adIjX3tE-39" value="" style="endArrow=none;html=1;rounded=0;exitX=1;exitY=1;exitDx=0;exitDy=0;entryX=0;entryY=0.5;entryDx=0;entryDy=0;" edge="1" parent="1" source="FmT7gTH9NCa0adIjX3tE-28" target="FmT7gTH9NCa0adIjX3tE-33">
          <mxGeometry relative="1" as="geometry">
            <mxPoint x="-360" y="890" as="sourcePoint" />
            <mxPoint x="-345" y="936" as="targetPoint" />
          </mxGeometry>
        </mxCell>
        <mxCell id="FmT7gTH9NCa0adIjX3tE-40" value="" style="endArrow=none;html=1;rounded=0;exitX=1;exitY=0;exitDx=0;exitDy=0;entryX=0;entryY=0.5;entryDx=0;entryDy=0;" edge="1" parent="1" source="FmT7gTH9NCa0adIjX3tE-28" target="FmT7gTH9NCa0adIjX3tE-30">
          <mxGeometry relative="1" as="geometry">
            <mxPoint x="-350" y="830" as="sourcePoint" />
            <mxPoint x="-335" y="876" as="targetPoint" />
          </mxGeometry>
        </mxCell>
        <mxCell id="FmT7gTH9NCa0adIjX3tE-41" value="department" style="whiteSpace=wrap;html=1;align=center;" vertex="1" parent="1">
          <mxGeometry x="-1050" y="820" width="90" height="40" as="geometry" />
        </mxCell>
        <mxCell id="FmT7gTH9NCa0adIjX3tE-42" value="dep_name" style="ellipse;whiteSpace=wrap;html=1;align=center;" vertex="1" parent="1">
          <mxGeometry x="-1190" y="867" width="100" height="40" as="geometry" />
        </mxCell>
        <mxCell id="FmT7gTH9NCa0adIjX3tE-43" value="dep_id" style="ellipse;whiteSpace=wrap;html=1;align=center;fontStyle=4;" vertex="1" parent="1">
          <mxGeometry x="-1190" y="770" width="100" height="40" as="geometry" />
        </mxCell>
        <mxCell id="FmT7gTH9NCa0adIjX3tE-50" value="" style="endArrow=none;html=1;rounded=0;exitX=0;exitY=1;exitDx=0;exitDy=0;entryX=1;entryY=0;entryDx=0;entryDy=0;" edge="1" parent="1" source="FmT7gTH9NCa0adIjX3tE-41" target="FmT7gTH9NCa0adIjX3tE-42">
          <mxGeometry relative="1" as="geometry">
            <mxPoint x="-810" y="949" as="sourcePoint" />
            <mxPoint x="-1090" y="944" as="targetPoint" />
          </mxGeometry>
        </mxCell>
        <mxCell id="FmT7gTH9NCa0adIjX3tE-53" value="" style="endArrow=none;html=1;rounded=0;exitX=0;exitY=0;exitDx=0;exitDy=0;entryX=1;entryY=1;entryDx=0;entryDy=0;" edge="1" parent="1" source="FmT7gTH9NCa0adIjX3tE-41" target="FmT7gTH9NCa0adIjX3tE-43">
          <mxGeometry relative="1" as="geometry">
            <mxPoint x="-820" y="548" as="sourcePoint" />
            <mxPoint x="-805" y="594" as="targetPoint" />
            <Array as="points" />
          </mxGeometry>
        </mxCell>
        <mxCell id="FmT7gTH9NCa0adIjX3tE-54" value="appointment" style="whiteSpace=wrap;html=1;align=center;" vertex="1" parent="1">
          <mxGeometry x="525" y="500" width="100" height="40" as="geometry" />
        </mxCell>
        <mxCell id="FmT7gTH9NCa0adIjX3tE-55" value="time" style="ellipse;whiteSpace=wrap;html=1;align=center;" vertex="1" parent="1">
          <mxGeometry x="375" y="540" width="100" height="40" as="geometry" />
        </mxCell>
        <mxCell id="FmT7gTH9NCa0adIjX3tE-56" value="app_id" style="ellipse;whiteSpace=wrap;html=1;align=center;fontStyle=4;" vertex="1" parent="1">
          <mxGeometry x="680" y="440" width="100" height="40" as="geometry" />
        </mxCell>
        <mxCell id="FmT7gTH9NCa0adIjX3tE-57" value="p_id" style="ellipse;whiteSpace=wrap;html=1;align=center;" vertex="1" parent="1">
          <mxGeometry x="415" y="430" width="100" height="40" as="geometry" />
        </mxCell>
        <mxCell id="FmT7gTH9NCa0adIjX3tE-58" value="date" style="ellipse;whiteSpace=wrap;html=1;align=center;" vertex="1" parent="1">
          <mxGeometry x="430" y="585" width="100" height="40" as="geometry" />
        </mxCell>
        <mxCell id="FmT7gTH9NCa0adIjX3tE-59" value="doc_id" style="ellipse;whiteSpace=wrap;html=1;align=center;fontStyle=0" vertex="1" parent="1">
          <mxGeometry x="690" y="540" width="100" height="40" as="geometry" />
        </mxCell>
        <mxCell id="FmT7gTH9NCa0adIjX3tE-62" value="" style="endArrow=none;html=1;rounded=0;exitX=0.5;exitY=1;exitDx=0;exitDy=0;entryX=0;entryY=0;entryDx=0;entryDy=0;" edge="1" parent="1" source="FmT7gTH9NCa0adIjX3tE-57" target="FmT7gTH9NCa0adIjX3tE-54">
          <mxGeometry relative="1" as="geometry">
            <mxPoint x="560" y="411" as="sourcePoint" />
            <mxPoint x="575" y="457" as="targetPoint" />
          </mxGeometry>
        </mxCell>
        <mxCell id="FmT7gTH9NCa0adIjX3tE-63" value="" style="endArrow=none;html=1;rounded=0;exitX=0;exitY=1;exitDx=0;exitDy=0;entryX=1;entryY=0.5;entryDx=0;entryDy=0;" edge="1" parent="1" source="FmT7gTH9NCa0adIjX3tE-54" target="FmT7gTH9NCa0adIjX3tE-55">
          <mxGeometry relative="1" as="geometry">
            <mxPoint x="470" y="501" as="sourcePoint" />
            <mxPoint x="485" y="547" as="targetPoint" />
          </mxGeometry>
        </mxCell>
        <mxCell id="FmT7gTH9NCa0adIjX3tE-64" value="" style="endArrow=none;html=1;rounded=0;exitX=0.25;exitY=1;exitDx=0;exitDy=0;entryX=1;entryY=0;entryDx=0;entryDy=0;" edge="1" parent="1" source="FmT7gTH9NCa0adIjX3tE-54" target="FmT7gTH9NCa0adIjX3tE-58">
          <mxGeometry relative="1" as="geometry">
            <mxPoint x="520" y="561" as="sourcePoint" />
            <mxPoint x="535" y="607" as="targetPoint" />
          </mxGeometry>
        </mxCell>
        <mxCell id="FmT7gTH9NCa0adIjX3tE-65" value="" style="endArrow=none;html=1;rounded=0;exitX=1;exitY=1;exitDx=0;exitDy=0;entryX=0;entryY=0.5;entryDx=0;entryDy=0;" edge="1" parent="1" source="FmT7gTH9NCa0adIjX3tE-54" target="FmT7gTH9NCa0adIjX3tE-59">
          <mxGeometry relative="1" as="geometry">
            <mxPoint x="690" y="561" as="sourcePoint" />
            <mxPoint x="705" y="607" as="targetPoint" />
          </mxGeometry>
        </mxCell>
        <mxCell id="FmT7gTH9NCa0adIjX3tE-66" value="" style="endArrow=none;html=1;rounded=0;exitX=1;exitY=0;exitDx=0;exitDy=0;entryX=0;entryY=0.5;entryDx=0;entryDy=0;" edge="1" parent="1" source="FmT7gTH9NCa0adIjX3tE-54" target="FmT7gTH9NCa0adIjX3tE-56">
          <mxGeometry relative="1" as="geometry">
            <mxPoint x="700" y="501" as="sourcePoint" />
            <mxPoint x="715" y="547" as="targetPoint" />
          </mxGeometry>
        </mxCell>
        <mxCell id="FmT7gTH9NCa0adIjX3tE-67" value="FK" style="text;html=1;align=center;verticalAlign=middle;resizable=0;points=[];autosize=1;strokeColor=none;fillColor=none;fontStyle=1" vertex="1" parent="1">
          <mxGeometry x="425" y="395" width="40" height="30" as="geometry" />
        </mxCell>
        <mxCell id="FmT7gTH9NCa0adIjX3tE-81" value="purpose" style="ellipse;whiteSpace=wrap;html=1;align=center;" vertex="1" parent="1">
          <mxGeometry x="620" y="585" width="100" height="40" as="geometry" />
        </mxCell>
        <mxCell id="FmT7gTH9NCa0adIjX3tE-82" value="" style="endArrow=none;html=1;rounded=0;exitX=0.75;exitY=1;exitDx=0;exitDy=0;entryX=0;entryY=0;entryDx=0;entryDy=0;" edge="1" parent="1" source="FmT7gTH9NCa0adIjX3tE-54" target="FmT7gTH9NCa0adIjX3tE-81">
          <mxGeometry relative="1" as="geometry">
            <mxPoint x="575" y="561" as="sourcePoint" />
            <mxPoint x="550" y="617" as="targetPoint" />
          </mxGeometry>
        </mxCell>
        <mxCell id="FmT7gTH9NCa0adIjX3tE-83" value="FK" style="text;html=1;align=center;verticalAlign=middle;resizable=0;points=[];autosize=1;strokeColor=none;fillColor=none;fontStyle=1" vertex="1" parent="1">
          <mxGeometry x="690" y="521" width="40" height="30" as="geometry" />
        </mxCell>
        <mxCell id="FmT7gTH9NCa0adIjX3tE-84" value="medical record" style="whiteSpace=wrap;html=1;align=center;" vertex="1" parent="1">
          <mxGeometry x="-650" y="498" width="100" height="40" as="geometry" />
        </mxCell>
        <mxCell id="FmT7gTH9NCa0adIjX3tE-85" value="prcedure" style="ellipse;whiteSpace=wrap;html=1;align=center;" vertex="1" parent="1">
          <mxGeometry x="-780" y="548" width="100" height="40" as="geometry" />
        </mxCell>
        <mxCell id="FmT7gTH9NCa0adIjX3tE-86" value="rec_id" style="ellipse;whiteSpace=wrap;html=1;align=center;fontStyle=4;" vertex="1" parent="1">
          <mxGeometry x="-525" y="438" width="100" height="40" as="geometry" />
        </mxCell>
        <mxCell id="FmT7gTH9NCa0adIjX3tE-87" value="p_id" style="ellipse;whiteSpace=wrap;html=1;align=center;" vertex="1" parent="1">
          <mxGeometry x="-760" y="400" width="100" height="40" as="geometry" />
        </mxCell>
        <mxCell id="FmT7gTH9NCa0adIjX3tE-88" value="preception" style="ellipse;whiteSpace=wrap;html=1;align=center;" vertex="1" parent="1">
          <mxGeometry x="-760" y="598" width="100" height="40" as="geometry" />
        </mxCell>
        <mxCell id="FmT7gTH9NCa0adIjX3tE-90" value="diagnosis" style="ellipse;whiteSpace=wrap;html=1;align=center;" vertex="1" parent="1">
          <mxGeometry x="-805" y="455" width="100" height="40" as="geometry" />
        </mxCell>
        <mxCell id="FmT7gTH9NCa0adIjX3tE-91" value="" style="endArrow=none;html=1;rounded=0;exitX=1;exitY=1;exitDx=0;exitDy=0;entryX=0;entryY=0;entryDx=0;entryDy=0;" edge="1" parent="1" source="FmT7gTH9NCa0adIjX3tE-90" target="FmT7gTH9NCa0adIjX3tE-84">
          <mxGeometry relative="1" as="geometry">
            <mxPoint x="-520" y="932" as="sourcePoint" />
            <mxPoint x="-360" y="932" as="targetPoint" />
          </mxGeometry>
        </mxCell>
        <mxCell id="FmT7gTH9NCa0adIjX3tE-92" value="" style="endArrow=none;html=1;rounded=0;exitX=0.5;exitY=1;exitDx=0;exitDy=0;entryX=0;entryY=0;entryDx=0;entryDy=0;" edge="1" parent="1" source="FmT7gTH9NCa0adIjX3tE-87" target="FmT7gTH9NCa0adIjX3tE-84">
          <mxGeometry relative="1" as="geometry">
            <mxPoint x="-350" y="792" as="sourcePoint" />
            <mxPoint x="-335" y="838" as="targetPoint" />
          </mxGeometry>
        </mxCell>
        <mxCell id="FmT7gTH9NCa0adIjX3tE-93" value="" style="endArrow=none;html=1;rounded=0;exitX=0;exitY=1;exitDx=0;exitDy=0;entryX=1;entryY=0.5;entryDx=0;entryDy=0;" edge="1" parent="1" source="FmT7gTH9NCa0adIjX3tE-84" target="FmT7gTH9NCa0adIjX3tE-85">
          <mxGeometry relative="1" as="geometry">
            <mxPoint x="-440" y="882" as="sourcePoint" />
            <mxPoint x="-425" y="928" as="targetPoint" />
          </mxGeometry>
        </mxCell>
        <mxCell id="FmT7gTH9NCa0adIjX3tE-94" value="" style="endArrow=none;html=1;rounded=0;exitX=0;exitY=1;exitDx=0;exitDy=0;entryX=1;entryY=0;entryDx=0;entryDy=0;" edge="1" parent="1" source="FmT7gTH9NCa0adIjX3tE-84" target="FmT7gTH9NCa0adIjX3tE-88">
          <mxGeometry relative="1" as="geometry">
            <mxPoint x="-390" y="942" as="sourcePoint" />
            <mxPoint x="-375" y="988" as="targetPoint" />
          </mxGeometry>
        </mxCell>
        <mxCell id="FmT7gTH9NCa0adIjX3tE-96" value="" style="endArrow=none;html=1;rounded=0;exitX=1;exitY=0;exitDx=0;exitDy=0;entryX=0;entryY=0.5;entryDx=0;entryDy=0;" edge="1" parent="1" source="FmT7gTH9NCa0adIjX3tE-84" target="FmT7gTH9NCa0adIjX3tE-86">
          <mxGeometry relative="1" as="geometry">
            <mxPoint x="-210" y="882" as="sourcePoint" />
            <mxPoint x="-195" y="928" as="targetPoint" />
          </mxGeometry>
        </mxCell>
        <mxCell id="FmT7gTH9NCa0adIjX3tE-97" value="FK" style="text;html=1;align=center;verticalAlign=middle;resizable=0;points=[];autosize=1;strokeColor=none;fillColor=none;fontStyle=1" vertex="1" parent="1">
          <mxGeometry x="-760" y="380" width="40" height="30" as="geometry" />
        </mxCell>
        <mxCell id="FmT7gTH9NCa0adIjX3tE-98" value="date" style="ellipse;whiteSpace=wrap;html=1;align=center;" vertex="1" parent="1">
          <mxGeometry x="-680" y="638" width="100" height="40" as="geometry" />
        </mxCell>
        <mxCell id="FmT7gTH9NCa0adIjX3tE-99" value="" style="endArrow=none;html=1;rounded=0;exitX=0;exitY=1;exitDx=0;exitDy=0;entryX=0.5;entryY=0;entryDx=0;entryDy=0;" edge="1" parent="1" source="FmT7gTH9NCa0adIjX3tE-84" target="FmT7gTH9NCa0adIjX3tE-98">
          <mxGeometry relative="1" as="geometry">
            <mxPoint x="-335" y="942" as="sourcePoint" />
            <mxPoint x="-360" y="998" as="targetPoint" />
          </mxGeometry>
        </mxCell>
        <mxCell id="FmT7gTH9NCa0adIjX3tE-101" value="room" style="whiteSpace=wrap;html=1;align=center;" vertex="1" parent="1">
          <mxGeometry x="-30" y="1070" width="100" height="40" as="geometry" />
        </mxCell>
        <mxCell id="FmT7gTH9NCa0adIjX3tE-102" value="ChargesPerDay" style="ellipse;whiteSpace=wrap;html=1;align=center;" vertex="1" parent="1">
          <mxGeometry x="-160" y="1110" width="100" height="40" as="geometry" />
        </mxCell>
        <mxCell id="FmT7gTH9NCa0adIjX3tE-103" value="room_id" style="ellipse;whiteSpace=wrap;html=1;align=center;fontStyle=4;" vertex="1" parent="1">
          <mxGeometry x="100" y="1016" width="100" height="40" as="geometry" />
        </mxCell>
        <mxCell id="FmT7gTH9NCa0adIjX3tE-107" value="room_type" style="ellipse;whiteSpace=wrap;html=1;align=center;" vertex="1" parent="1">
          <mxGeometry x="-160" y="998" width="100" height="40" as="geometry" />
        </mxCell>
        <mxCell id="FmT7gTH9NCa0adIjX3tE-108" value="" style="endArrow=none;html=1;rounded=0;exitX=1;exitY=1;exitDx=0;exitDy=0;entryX=0;entryY=0;entryDx=0;entryDy=0;" edge="1" parent="1" source="FmT7gTH9NCa0adIjX3tE-107" target="FmT7gTH9NCa0adIjX3tE-101">
          <mxGeometry relative="1" as="geometry">
            <mxPoint x="760" y="1712" as="sourcePoint" />
            <mxPoint x="920" y="1712" as="targetPoint" />
          </mxGeometry>
        </mxCell>
        <mxCell id="FmT7gTH9NCa0adIjX3tE-110" value="" style="endArrow=none;html=1;rounded=0;exitX=0;exitY=1;exitDx=0;exitDy=0;entryX=1;entryY=0.5;entryDx=0;entryDy=0;" edge="1" parent="1" source="FmT7gTH9NCa0adIjX3tE-101" target="FmT7gTH9NCa0adIjX3tE-102">
          <mxGeometry relative="1" as="geometry">
            <mxPoint x="840" y="1662" as="sourcePoint" />
            <mxPoint x="855" y="1708" as="targetPoint" />
          </mxGeometry>
        </mxCell>
        <mxCell id="FmT7gTH9NCa0adIjX3tE-113" value="" style="endArrow=none;html=1;rounded=0;exitX=1;exitY=0;exitDx=0;exitDy=0;entryX=0;entryY=0.5;entryDx=0;entryDy=0;" edge="1" parent="1" source="FmT7gTH9NCa0adIjX3tE-101" target="FmT7gTH9NCa0adIjX3tE-103">
          <mxGeometry relative="1" as="geometry">
            <mxPoint x="1070" y="1662" as="sourcePoint" />
            <mxPoint x="1085" y="1708" as="targetPoint" />
          </mxGeometry>
        </mxCell>
        <mxCell id="FmT7gTH9NCa0adIjX3tE-118" value="admission" style="whiteSpace=wrap;html=1;align=center;" vertex="1" parent="1">
          <mxGeometry x="-30" y="820" width="100" height="40" as="geometry" />
        </mxCell>
        <mxCell id="FmT7gTH9NCa0adIjX3tE-119" value="discharge_date" style="ellipse;whiteSpace=wrap;html=1;align=center;" vertex="1" parent="1">
          <mxGeometry x="-160" y="877" width="100" height="40" as="geometry" />
        </mxCell>
        <mxCell id="FmT7gTH9NCa0adIjX3tE-120" value="add_id" style="ellipse;whiteSpace=wrap;html=1;align=center;fontStyle=4;" vertex="1" parent="1">
          <mxGeometry x="50" y="730" width="100" height="40" as="geometry" />
        </mxCell>
        <mxCell id="FmT7gTH9NCa0adIjX3tE-121" value="p_id" style="ellipse;whiteSpace=wrap;html=1;align=center;" vertex="1" parent="1">
          <mxGeometry x="-180" y="766" width="100" height="40" as="geometry" />
        </mxCell>
        <mxCell id="FmT7gTH9NCa0adIjX3tE-123" value="room_id" style="ellipse;whiteSpace=wrap;html=1;align=center;fontStyle=0" vertex="1" parent="1">
          <mxGeometry x="70" y="900" width="100" height="40" as="geometry" />
        </mxCell>
        <mxCell id="FmT7gTH9NCa0adIjX3tE-124" value="admit_date" style="ellipse;whiteSpace=wrap;html=1;align=center;" vertex="1" parent="1">
          <mxGeometry x="-100" y="730" width="100" height="40" as="geometry" />
        </mxCell>
        <mxCell id="FmT7gTH9NCa0adIjX3tE-125" value="" style="endArrow=none;html=1;rounded=0;exitX=0.5;exitY=1;exitDx=0;exitDy=0;entryX=0.25;entryY=0;entryDx=0;entryDy=0;" edge="1" parent="1" source="FmT7gTH9NCa0adIjX3tE-124" target="FmT7gTH9NCa0adIjX3tE-118">
          <mxGeometry relative="1" as="geometry">
            <mxPoint x="-125" y="793" as="sourcePoint" />
            <mxPoint x="35" y="793" as="targetPoint" />
          </mxGeometry>
        </mxCell>
        <mxCell id="FmT7gTH9NCa0adIjX3tE-126" value="" style="endArrow=none;html=1;rounded=0;exitX=1;exitY=1;exitDx=0;exitDy=0;entryX=0;entryY=0;entryDx=0;entryDy=0;" edge="1" parent="1" source="FmT7gTH9NCa0adIjX3tE-121" target="FmT7gTH9NCa0adIjX3tE-118">
          <mxGeometry relative="1" as="geometry">
            <mxPoint x="45" y="653" as="sourcePoint" />
            <mxPoint x="60" y="699" as="targetPoint" />
          </mxGeometry>
        </mxCell>
        <mxCell id="FmT7gTH9NCa0adIjX3tE-127" value="" style="endArrow=none;html=1;rounded=0;exitX=0;exitY=1;exitDx=0;exitDy=0;entryX=1;entryY=0.5;entryDx=0;entryDy=0;" edge="1" parent="1" source="FmT7gTH9NCa0adIjX3tE-118" target="FmT7gTH9NCa0adIjX3tE-119">
          <mxGeometry relative="1" as="geometry">
            <mxPoint x="-45" y="743" as="sourcePoint" />
            <mxPoint x="-30" y="789" as="targetPoint" />
          </mxGeometry>
        </mxCell>
        <mxCell id="FmT7gTH9NCa0adIjX3tE-129" value="" style="endArrow=none;html=1;rounded=0;exitX=1;exitY=1;exitDx=0;exitDy=0;entryX=0;entryY=0;entryDx=0;entryDy=0;" edge="1" parent="1" source="FmT7gTH9NCa0adIjX3tE-118" target="FmT7gTH9NCa0adIjX3tE-123">
          <mxGeometry relative="1" as="geometry">
            <mxPoint x="175" y="803" as="sourcePoint" />
            <mxPoint x="190" y="849" as="targetPoint" />
          </mxGeometry>
        </mxCell>
        <mxCell id="FmT7gTH9NCa0adIjX3tE-130" value="" style="endArrow=none;html=1;rounded=0;exitX=0.69;exitY=0.075;exitDx=0;exitDy=0;entryX=0.5;entryY=1;entryDx=0;entryDy=0;exitPerimeter=0;" edge="1" parent="1" source="FmT7gTH9NCa0adIjX3tE-118" target="FmT7gTH9NCa0adIjX3tE-120">
          <mxGeometry relative="1" as="geometry">
            <mxPoint x="185" y="743" as="sourcePoint" />
            <mxPoint x="195" y="713" as="targetPoint" />
          </mxGeometry>
        </mxCell>
        <mxCell id="FmT7gTH9NCa0adIjX3tE-131" value="FK" style="text;html=1;align=center;verticalAlign=middle;resizable=0;points=[];autosize=1;strokeColor=none;fillColor=none;fontStyle=1" vertex="1" parent="1">
          <mxGeometry x="-110" y="708" width="40" height="30" as="geometry" />
        </mxCell>
        <mxCell id="FmT7gTH9NCa0adIjX3tE-134" value="FK" style="text;html=1;align=center;verticalAlign=middle;resizable=0;points=[];autosize=1;strokeColor=none;fillColor=none;fontStyle=1" vertex="1" parent="1">
          <mxGeometry x="80" y="877" width="40" height="30" as="geometry" />
        </mxCell>
        <mxCell id="FmT7gTH9NCa0adIjX3tE-135" value="bill" style="whiteSpace=wrap;html=1;align=center;" vertex="1" parent="1">
          <mxGeometry x="355" y="752" width="100" height="40" as="geometry" />
        </mxCell>
        <mxCell id="FmT7gTH9NCa0adIjX3tE-137" value="bill_id" style="ellipse;whiteSpace=wrap;html=1;align=center;fontStyle=4;" vertex="1" parent="1">
          <mxGeometry x="475" y="702" width="100" height="40" as="geometry" />
        </mxCell>
        <mxCell id="FmT7gTH9NCa0adIjX3tE-138" value="p_id" style="ellipse;whiteSpace=wrap;html=1;align=center;" vertex="1" parent="1">
          <mxGeometry x="335" y="674" width="100" height="40" as="geometry" />
        </mxCell>
        <mxCell id="FmT7gTH9NCa0adIjX3tE-139" value="bill_date" style="ellipse;whiteSpace=wrap;html=1;align=center;" vertex="1" parent="1">
          <mxGeometry x="235" y="842" width="100" height="40" as="geometry" />
        </mxCell>
        <mxCell id="FmT7gTH9NCa0adIjX3tE-141" value="total_amt" style="ellipse;whiteSpace=wrap;html=1;align=center;" vertex="1" parent="1">
          <mxGeometry x="460" y="830" width="100" height="40" as="geometry" />
        </mxCell>
        <mxCell id="FmT7gTH9NCa0adIjX3tE-142" value="" style="endArrow=none;html=1;rounded=0;exitX=0;exitY=0;exitDx=0;exitDy=0;entryX=0.94;entryY=1;entryDx=0;entryDy=0;entryPerimeter=0;" edge="1" parent="1" source="FmT7gTH9NCa0adIjX3tE-141" target="FmT7gTH9NCa0adIjX3tE-135">
          <mxGeometry relative="1" as="geometry">
            <mxPoint x="205" y="812" as="sourcePoint" />
            <mxPoint x="365" y="812" as="targetPoint" />
          </mxGeometry>
        </mxCell>
        <mxCell id="FmT7gTH9NCa0adIjX3tE-143" value="" style="endArrow=none;html=1;rounded=0;exitX=0.5;exitY=1;exitDx=0;exitDy=0;entryX=0;entryY=0;entryDx=0;entryDy=0;" edge="1" parent="1" source="FmT7gTH9NCa0adIjX3tE-138" target="FmT7gTH9NCa0adIjX3tE-135">
          <mxGeometry relative="1" as="geometry">
            <mxPoint x="375" y="672" as="sourcePoint" />
            <mxPoint x="390" y="718" as="targetPoint" />
          </mxGeometry>
        </mxCell>
        <mxCell id="FmT7gTH9NCa0adIjX3tE-145" value="" style="endArrow=none;html=1;rounded=0;exitX=0;exitY=1;exitDx=0;exitDy=0;entryX=1;entryY=0;entryDx=0;entryDy=0;" edge="1" parent="1" source="FmT7gTH9NCa0adIjX3tE-135" target="FmT7gTH9NCa0adIjX3tE-139">
          <mxGeometry relative="1" as="geometry">
            <mxPoint x="415" y="946" as="sourcePoint" />
            <mxPoint x="430" y="992" as="targetPoint" />
          </mxGeometry>
        </mxCell>
        <mxCell id="FmT7gTH9NCa0adIjX3tE-147" value="" style="endArrow=none;html=1;rounded=0;exitX=1;exitY=0;exitDx=0;exitDy=0;entryX=0;entryY=0.5;entryDx=0;entryDy=0;" edge="1" parent="1" source="FmT7gTH9NCa0adIjX3tE-135" target="FmT7gTH9NCa0adIjX3tE-137">
          <mxGeometry relative="1" as="geometry">
            <mxPoint x="515" y="762" as="sourcePoint" />
            <mxPoint x="530" y="808" as="targetPoint" />
          </mxGeometry>
        </mxCell>
        <mxCell id="FmT7gTH9NCa0adIjX3tE-148" value="FK" style="text;html=1;align=center;verticalAlign=middle;resizable=0;points=[];autosize=1;strokeColor=none;fillColor=none;fontStyle=1" vertex="1" parent="1">
          <mxGeometry x="345" y="644" width="40" height="30" as="geometry" />
        </mxCell>
        <mxCell id="FmT7gTH9NCa0adIjX3tE-152" value="billItems" style="whiteSpace=wrap;html=1;align=center;" vertex="1" parent="1">
          <mxGeometry x="860" y="752" width="100" height="40" as="geometry" />
        </mxCell>
        <mxCell id="FmT7gTH9NCa0adIjX3tE-153" value="cost" style="ellipse;whiteSpace=wrap;html=1;align=center;" vertex="1" parent="1">
          <mxGeometry x="730" y="806" width="100" height="40" as="geometry" />
        </mxCell>
        <mxCell id="FmT7gTH9NCa0adIjX3tE-154" value="billiltems_id" style="ellipse;whiteSpace=wrap;html=1;align=center;fontStyle=4;" vertex="1" parent="1">
          <mxGeometry x="1000" y="706" width="100" height="40" as="geometry" />
        </mxCell>
        <mxCell id="FmT7gTH9NCa0adIjX3tE-155" value="bill_id" style="ellipse;whiteSpace=wrap;html=1;align=center;" vertex="1" parent="1">
          <mxGeometry x="860" y="666" width="100" height="40" as="geometry" />
        </mxCell>
        <mxCell id="FmT7gTH9NCa0adIjX3tE-157" value="doc_id" style="ellipse;whiteSpace=wrap;html=1;align=center;fontStyle=0" vertex="1" parent="1">
          <mxGeometry x="980" y="802" width="100" height="40" as="geometry" />
        </mxCell>
        <mxCell id="FmT7gTH9NCa0adIjX3tE-158" value="item_type" style="ellipse;whiteSpace=wrap;html=1;align=center;" vertex="1" parent="1">
          <mxGeometry x="760" y="686" width="100" height="40" as="geometry" />
        </mxCell>
        <mxCell id="FmT7gTH9NCa0adIjX3tE-159" value="" style="endArrow=none;html=1;rounded=0;exitX=1;exitY=1;exitDx=0;exitDy=0;entryX=0;entryY=0;entryDx=0;entryDy=0;" edge="1" parent="1" source="FmT7gTH9NCa0adIjX3tE-158" target="FmT7gTH9NCa0adIjX3tE-152">
          <mxGeometry relative="1" as="geometry">
            <mxPoint x="1240" y="780" as="sourcePoint" />
            <mxPoint x="1400" y="780" as="targetPoint" />
          </mxGeometry>
        </mxCell>
        <mxCell id="FmT7gTH9NCa0adIjX3tE-160" value="" style="endArrow=none;html=1;rounded=0;exitX=0.5;exitY=1;exitDx=0;exitDy=0;entryX=0;entryY=0;entryDx=0;entryDy=0;" edge="1" parent="1" source="FmT7gTH9NCa0adIjX3tE-155" target="FmT7gTH9NCa0adIjX3tE-152">
          <mxGeometry relative="1" as="geometry">
            <mxPoint x="1410" y="640" as="sourcePoint" />
            <mxPoint x="1425" y="686" as="targetPoint" />
          </mxGeometry>
        </mxCell>
        <mxCell id="FmT7gTH9NCa0adIjX3tE-161" value="" style="endArrow=none;html=1;rounded=0;exitX=0;exitY=1;exitDx=0;exitDy=0;entryX=1;entryY=0.5;entryDx=0;entryDy=0;" edge="1" parent="1" source="FmT7gTH9NCa0adIjX3tE-152" target="FmT7gTH9NCa0adIjX3tE-153">
          <mxGeometry relative="1" as="geometry">
            <mxPoint x="1320" y="730" as="sourcePoint" />
            <mxPoint x="1335" y="776" as="targetPoint" />
          </mxGeometry>
        </mxCell>
        <mxCell id="FmT7gTH9NCa0adIjX3tE-163" value="" style="endArrow=none;html=1;rounded=0;exitX=1;exitY=1;exitDx=0;exitDy=0;entryX=0;entryY=0.5;entryDx=0;entryDy=0;" edge="1" parent="1" source="FmT7gTH9NCa0adIjX3tE-152" target="FmT7gTH9NCa0adIjX3tE-157">
          <mxGeometry relative="1" as="geometry">
            <mxPoint x="1540" y="790" as="sourcePoint" />
            <mxPoint x="1555" y="836" as="targetPoint" />
          </mxGeometry>
        </mxCell>
        <mxCell id="FmT7gTH9NCa0adIjX3tE-164" value="" style="endArrow=none;html=1;rounded=0;exitX=1;exitY=0;exitDx=0;exitDy=0;entryX=0;entryY=0.5;entryDx=0;entryDy=0;" edge="1" parent="1" source="FmT7gTH9NCa0adIjX3tE-152" target="FmT7gTH9NCa0adIjX3tE-154">
          <mxGeometry relative="1" as="geometry">
            <mxPoint x="1550" y="730" as="sourcePoint" />
            <mxPoint x="1565" y="776" as="targetPoint" />
          </mxGeometry>
        </mxCell>
        <mxCell id="FmT7gTH9NCa0adIjX3tE-165" value="FK" style="text;html=1;align=center;verticalAlign=middle;resizable=0;points=[];autosize=1;strokeColor=none;fillColor=none;fontStyle=1" vertex="1" parent="1">
          <mxGeometry x="860" y="644" width="40" height="30" as="geometry" />
        </mxCell>
        <mxCell id="FmT7gTH9NCa0adIjX3tE-168" value="FK" style="text;html=1;align=center;verticalAlign=middle;resizable=0;points=[];autosize=1;strokeColor=none;fillColor=none;fontStyle=1" vertex="1" parent="1">
          <mxGeometry x="980" y="780" width="40" height="30" as="geometry" />
        </mxCell>
        <mxCell id="FmT7gTH9NCa0adIjX3tE-169" value="discharge&lt;div&gt;summery&lt;/div&gt;" style="whiteSpace=wrap;html=1;align=center;" vertex="1" parent="1">
          <mxGeometry x="590" y="1060" width="100" height="40" as="geometry" />
        </mxCell>
        <mxCell id="FmT7gTH9NCa0adIjX3tE-170" value="procedure" style="ellipse;whiteSpace=wrap;html=1;align=center;" vertex="1" parent="1">
          <mxGeometry x="460" y="1102" width="100" height="40" as="geometry" />
        </mxCell>
        <mxCell id="FmT7gTH9NCa0adIjX3tE-171" value="summery_id" style="ellipse;whiteSpace=wrap;html=1;align=center;fontStyle=4;" vertex="1" parent="1">
          <mxGeometry x="770" y="1022" width="100" height="40" as="geometry" />
        </mxCell>
        <mxCell id="FmT7gTH9NCa0adIjX3tE-172" value="add_id" style="ellipse;whiteSpace=wrap;html=1;align=center;" vertex="1" parent="1">
          <mxGeometry x="590" y="962" width="100" height="40" as="geometry" />
        </mxCell>
        <mxCell id="FmT7gTH9NCa0adIjX3tE-173" value="follow up" style="ellipse;whiteSpace=wrap;html=1;align=center;" vertex="1" parent="1">
          <mxGeometry x="480" y="1152" width="100" height="40" as="geometry" />
        </mxCell>
        <mxCell id="FmT7gTH9NCa0adIjX3tE-174" value="doc_id" style="ellipse;whiteSpace=wrap;html=1;align=center;fontStyle=0" vertex="1" parent="1">
          <mxGeometry x="760" y="1142" width="100" height="40" as="geometry" />
        </mxCell>
        <mxCell id="FmT7gTH9NCa0adIjX3tE-175" value="diagnosis" style="ellipse;whiteSpace=wrap;html=1;align=center;" vertex="1" parent="1">
          <mxGeometry x="490" y="982" width="100" height="40" as="geometry" />
        </mxCell>
        <mxCell id="FmT7gTH9NCa0adIjX3tE-176" value="" style="endArrow=none;html=1;rounded=0;exitX=1;exitY=1;exitDx=0;exitDy=0;entryX=0;entryY=0;entryDx=0;entryDy=0;" edge="1" parent="1" source="FmT7gTH9NCa0adIjX3tE-175" target="FmT7gTH9NCa0adIjX3tE-169">
          <mxGeometry relative="1" as="geometry">
            <mxPoint x="450" y="1122" as="sourcePoint" />
            <mxPoint x="610" y="1122" as="targetPoint" />
          </mxGeometry>
        </mxCell>
        <mxCell id="FmT7gTH9NCa0adIjX3tE-177" value="" style="endArrow=none;html=1;rounded=0;exitX=0.5;exitY=1;exitDx=0;exitDy=0;entryX=0;entryY=0;entryDx=0;entryDy=0;" edge="1" parent="1" source="FmT7gTH9NCa0adIjX3tE-172" target="FmT7gTH9NCa0adIjX3tE-169">
          <mxGeometry relative="1" as="geometry">
            <mxPoint x="620" y="982" as="sourcePoint" />
            <mxPoint x="635" y="1028" as="targetPoint" />
          </mxGeometry>
        </mxCell>
        <mxCell id="FmT7gTH9NCa0adIjX3tE-178" value="" style="endArrow=none;html=1;rounded=0;exitX=0;exitY=1;exitDx=0;exitDy=0;entryX=1;entryY=0.5;entryDx=0;entryDy=0;" edge="1" parent="1" source="FmT7gTH9NCa0adIjX3tE-169" target="FmT7gTH9NCa0adIjX3tE-170">
          <mxGeometry relative="1" as="geometry">
            <mxPoint x="530" y="1072" as="sourcePoint" />
            <mxPoint x="545" y="1118" as="targetPoint" />
          </mxGeometry>
        </mxCell>
        <mxCell id="FmT7gTH9NCa0adIjX3tE-179" value="" style="endArrow=none;html=1;rounded=0;exitX=0;exitY=1;exitDx=0;exitDy=0;entryX=1;entryY=0;entryDx=0;entryDy=0;" edge="1" parent="1" source="FmT7gTH9NCa0adIjX3tE-169" target="FmT7gTH9NCa0adIjX3tE-173">
          <mxGeometry relative="1" as="geometry">
            <mxPoint x="580" y="1132" as="sourcePoint" />
            <mxPoint x="595" y="1178" as="targetPoint" />
          </mxGeometry>
        </mxCell>
        <mxCell id="FmT7gTH9NCa0adIjX3tE-180" value="" style="endArrow=none;html=1;rounded=0;exitX=1;exitY=1;exitDx=0;exitDy=0;entryX=0;entryY=0.5;entryDx=0;entryDy=0;" edge="1" parent="1" source="FmT7gTH9NCa0adIjX3tE-169" target="FmT7gTH9NCa0adIjX3tE-174">
          <mxGeometry relative="1" as="geometry">
            <mxPoint x="750" y="1132" as="sourcePoint" />
            <mxPoint x="765" y="1178" as="targetPoint" />
          </mxGeometry>
        </mxCell>
        <mxCell id="FmT7gTH9NCa0adIjX3tE-181" value="" style="endArrow=none;html=1;rounded=0;exitX=1;exitY=0;exitDx=0;exitDy=0;entryX=0;entryY=0.5;entryDx=0;entryDy=0;" edge="1" parent="1" source="FmT7gTH9NCa0adIjX3tE-169" target="FmT7gTH9NCa0adIjX3tE-171">
          <mxGeometry relative="1" as="geometry">
            <mxPoint x="760" y="1072" as="sourcePoint" />
            <mxPoint x="775" y="1118" as="targetPoint" />
          </mxGeometry>
        </mxCell>
        <mxCell id="FmT7gTH9NCa0adIjX3tE-182" value="FK" style="text;html=1;align=center;verticalAlign=middle;resizable=0;points=[];autosize=1;strokeColor=none;fillColor=none;fontStyle=1" vertex="1" parent="1">
          <mxGeometry x="590" y="940" width="40" height="30" as="geometry" />
        </mxCell>
        <mxCell id="FmT7gTH9NCa0adIjX3tE-185" value="FK" style="text;html=1;align=center;verticalAlign=middle;resizable=0;points=[];autosize=1;strokeColor=none;fillColor=none;fontStyle=1" vertex="1" parent="1">
          <mxGeometry x="780" y="1122" width="40" height="30" as="geometry" />
        </mxCell>
        <mxCell id="FmT7gTH9NCa0adIjX3tE-188" value="can have" style="shape=rhombus;perimeter=rhombusPerimeter;whiteSpace=wrap;html=1;align=center;" vertex="1" parent="1">
          <mxGeometry x="235" y="491" width="120" height="60" as="geometry" />
        </mxCell>
        <mxCell id="FmT7gTH9NCa0adIjX3tE-189" value="" style="endArrow=none;html=1;rounded=0;entryX=0;entryY=0.5;entryDx=0;entryDy=0;exitX=1;exitY=0.5;exitDx=0;exitDy=0;startArrow=ERmandOne;startFill=0;" edge="1" parent="1" source="FmT7gTH9NCa0adIjX3tE-2" target="FmT7gTH9NCa0adIjX3tE-188">
          <mxGeometry relative="1" as="geometry">
            <mxPoint x="90" y="520" as="sourcePoint" />
            <mxPoint x="130" y="530" as="targetPoint" />
          </mxGeometry>
        </mxCell>
        <mxCell id="FmT7gTH9NCa0adIjX3tE-191" value="" style="endArrow=ERoneToMany;html=1;rounded=0;exitX=1;exitY=0.5;exitDx=0;exitDy=0;entryX=0;entryY=0.5;entryDx=0;entryDy=0;endFill=0;" edge="1" parent="1" source="FmT7gTH9NCa0adIjX3tE-188" target="FmT7gTH9NCa0adIjX3tE-54">
          <mxGeometry relative="1" as="geometry">
            <mxPoint x="410" y="510" as="sourcePoint" />
            <mxPoint x="490" y="500" as="targetPoint" />
          </mxGeometry>
        </mxCell>
        <mxCell id="FmT7gTH9NCa0adIjX3tE-192" value="1" style="text;html=1;align=center;verticalAlign=middle;resizable=0;points=[];autosize=1;strokeColor=none;fillColor=none;" vertex="1" parent="1">
          <mxGeometry x="225" y="478" width="30" height="30" as="geometry" />
        </mxCell>
        <mxCell id="FmT7gTH9NCa0adIjX3tE-193" value="M" style="text;html=1;align=center;verticalAlign=middle;resizable=0;points=[];autosize=1;strokeColor=none;fillColor=none;" vertex="1" parent="1">
          <mxGeometry x="345" y="478" width="30" height="30" as="geometry" />
        </mxCell>
        <mxCell id="FmT7gTH9NCa0adIjX3tE-194" value="can be admitted" style="shape=rhombus;perimeter=rhombusPerimeter;whiteSpace=wrap;html=1;align=center;" vertex="1" parent="1">
          <mxGeometry x="-40" y="668" width="120" height="60" as="geometry" />
        </mxCell>
        <mxCell id="FmT7gTH9NCa0adIjX3tE-195" value="" style="endArrow=none;html=1;rounded=0;entryX=0.5;entryY=0;entryDx=0;entryDy=0;exitX=0.5;exitY=1;exitDx=0;exitDy=0;startArrow=ERmandOne;startFill=0;" edge="1" parent="1" target="FmT7gTH9NCa0adIjX3tE-194" source="FmT7gTH9NCa0adIjX3tE-2">
          <mxGeometry relative="1" as="geometry">
            <mxPoint x="-135" y="505" as="sourcePoint" />
            <mxPoint x="-75" y="665" as="targetPoint" />
          </mxGeometry>
        </mxCell>
        <mxCell id="FmT7gTH9NCa0adIjX3tE-196" value="" style="endArrow=ERoneToMany;html=1;rounded=0;exitX=0.5;exitY=1;exitDx=0;exitDy=0;entryX=0.5;entryY=0;entryDx=0;entryDy=0;endFill=0;" edge="1" parent="1" source="FmT7gTH9NCa0adIjX3tE-194" target="FmT7gTH9NCa0adIjX3tE-118">
          <mxGeometry relative="1" as="geometry">
            <mxPoint x="205" y="645" as="sourcePoint" />
            <mxPoint x="320" y="650" as="targetPoint" />
          </mxGeometry>
        </mxCell>
        <mxCell id="FmT7gTH9NCa0adIjX3tE-197" value="1" style="text;html=1;align=center;verticalAlign=middle;resizable=0;points=[];autosize=1;strokeColor=none;fillColor=none;" vertex="1" parent="1">
          <mxGeometry x="20" y="638" width="30" height="30" as="geometry" />
        </mxCell>
        <mxCell id="FmT7gTH9NCa0adIjX3tE-198" value="M" style="text;html=1;align=center;verticalAlign=middle;resizable=0;points=[];autosize=1;strokeColor=none;fillColor=none;" vertex="1" parent="1">
          <mxGeometry x="20" y="722" width="30" height="30" as="geometry" />
        </mxCell>
        <mxCell id="FmT7gTH9NCa0adIjX3tE-200" value="can have" style="shape=rhombus;perimeter=rhombusPerimeter;whiteSpace=wrap;html=1;align=center;rotation=30;" vertex="1" parent="1">
          <mxGeometry x="135" y="600" width="120" height="60" as="geometry" />
        </mxCell>
        <mxCell id="FmT7gTH9NCa0adIjX3tE-201" value="" style="endArrow=none;html=1;rounded=0;entryX=0;entryY=0.5;entryDx=0;entryDy=0;exitX=1;exitY=1;exitDx=0;exitDy=0;startArrow=ERmandOne;startFill=0;" edge="1" parent="1" target="FmT7gTH9NCa0adIjX3tE-200" source="FmT7gTH9NCa0adIjX3tE-2">
          <mxGeometry relative="1" as="geometry">
            <mxPoint x="-92.5" y="510" as="sourcePoint" />
            <mxPoint x="37.5" y="645" as="targetPoint" />
          </mxGeometry>
        </mxCell>
        <mxCell id="FmT7gTH9NCa0adIjX3tE-202" value="" style="endArrow=ERoneToMany;html=1;rounded=0;exitX=1;exitY=0.5;exitDx=0;exitDy=0;endFill=0;entryX=0;entryY=0.5;entryDx=0;entryDy=0;" edge="1" parent="1" source="FmT7gTH9NCa0adIjX3tE-200" target="FmT7gTH9NCa0adIjX3tE-135">
          <mxGeometry relative="1" as="geometry">
            <mxPoint x="317.5" y="625" as="sourcePoint" />
            <mxPoint x="254" y="772" as="targetPoint" />
            <Array as="points">
              <mxPoint x="290" y="772" />
            </Array>
          </mxGeometry>
        </mxCell>
        <mxCell id="FmT7gTH9NCa0adIjX3tE-203" value="1" style="text;html=1;align=center;verticalAlign=middle;resizable=0;points=[];autosize=1;strokeColor=none;fillColor=none;rotation=40;" vertex="1" parent="1">
          <mxGeometry x="135" y="568" width="30" height="30" as="geometry" />
        </mxCell>
        <mxCell id="FmT7gTH9NCa0adIjX3tE-204" value="M" style="text;html=1;align=center;verticalAlign=middle;resizable=0;points=[];autosize=1;strokeColor=none;fillColor=none;" vertex="1" parent="1">
          <mxGeometry x="245" y="648" width="30" height="30" as="geometry" />
        </mxCell>
        <mxCell id="FmT7gTH9NCa0adIjX3tE-205" value="can have" style="shape=rhombus;perimeter=rhombusPerimeter;whiteSpace=wrap;html=1;align=center;" vertex="1" parent="1">
          <mxGeometry x="-390" y="488" width="120" height="60" as="geometry" />
        </mxCell>
        <mxCell id="FmT7gTH9NCa0adIjX3tE-206" value="" style="endArrow=none;html=1;rounded=0;exitX=0;exitY=0.5;exitDx=0;exitDy=0;startArrow=ERmandOne;startFill=0;entryX=1;entryY=0.5;entryDx=0;entryDy=0;" edge="1" parent="1" target="FmT7gTH9NCa0adIjX3tE-205" source="FmT7gTH9NCa0adIjX3tE-2">
          <mxGeometry relative="1" as="geometry">
            <mxPoint x="-500" y="517" as="sourcePoint" />
            <mxPoint x="-210" y="550" as="targetPoint" />
          </mxGeometry>
        </mxCell>
        <mxCell id="FmT7gTH9NCa0adIjX3tE-207" value="" style="endArrow=ERoneToMany;html=1;rounded=0;exitX=0;exitY=0.5;exitDx=0;exitDy=0;entryX=1;entryY=0.5;entryDx=0;entryDy=0;endFill=0;" edge="1" parent="1" source="FmT7gTH9NCa0adIjX3tE-205" target="FmT7gTH9NCa0adIjX3tE-84">
          <mxGeometry relative="1" as="geometry">
            <mxPoint x="-440" y="648" as="sourcePoint" />
            <mxPoint x="-270" y="647" as="targetPoint" />
          </mxGeometry>
        </mxCell>
        <mxCell id="FmT7gTH9NCa0adIjX3tE-208" value="1" style="text;html=1;align=center;verticalAlign=middle;resizable=0;points=[];autosize=1;strokeColor=none;fillColor=none;" vertex="1" parent="1">
          <mxGeometry x="-280" y="491" width="30" height="30" as="geometry" />
        </mxCell>
        <mxCell id="FmT7gTH9NCa0adIjX3tE-209" value="M" style="text;html=1;align=center;verticalAlign=middle;resizable=0;points=[];autosize=1;strokeColor=none;fillColor=none;" vertex="1" parent="1">
          <mxGeometry x="-405" y="488" width="30" height="30" as="geometry" />
        </mxCell>
        <mxCell id="FmT7gTH9NCa0adIjX3tE-212" value="" style="endArrow=none;html=1;rounded=0;exitX=1;exitY=0.5;exitDx=0;exitDy=0;startArrow=ERmandOne;startFill=0;entryX=0;entryY=0.5;entryDx=0;entryDy=0;" edge="1" parent="1" source="FmT7gTH9NCa0adIjX3tE-15" target="FmT7gTH9NCa0adIjX3tE-214">
          <mxGeometry relative="1" as="geometry">
            <mxPoint x="150" y="220" as="sourcePoint" />
            <mxPoint x="510" y="210" as="targetPoint" />
          </mxGeometry>
        </mxCell>
        <mxCell id="FmT7gTH9NCa0adIjX3tE-213" value="" style="endArrow=ERoneToMany;html=1;rounded=0;entryX=0.5;entryY=0;entryDx=0;entryDy=0;endFill=0;exitX=0.5;exitY=1;exitDx=0;exitDy=0;" edge="1" parent="1" source="FmT7gTH9NCa0adIjX3tE-214" target="FmT7gTH9NCa0adIjX3tE-54">
          <mxGeometry relative="1" as="geometry">
            <mxPoint x="570" y="260" as="sourcePoint" />
            <mxPoint x="720" y="400" as="targetPoint" />
          </mxGeometry>
        </mxCell>
        <mxCell id="FmT7gTH9NCa0adIjX3tE-214" value="can attend" style="shape=rhombus;perimeter=rhombusPerimeter;whiteSpace=wrap;html=1;align=center;" vertex="1" parent="1">
          <mxGeometry x="515" y="180" width="120" height="60" as="geometry" />
        </mxCell>
        <mxCell id="FmT7gTH9NCa0adIjX3tE-215" value="" style="endArrow=none;html=1;rounded=0;exitX=0;exitY=0.5;exitDx=0;exitDy=0;startArrow=ERmandOne;startFill=0;entryX=1;entryY=0.5;entryDx=0;entryDy=0;" edge="1" parent="1" source="FmT7gTH9NCa0adIjX3tE-15" target="FmT7gTH9NCa0adIjX3tE-217">
          <mxGeometry relative="1" as="geometry">
            <mxPoint x="-430" y="220" as="sourcePoint" />
            <mxPoint x="-550" y="210" as="targetPoint" />
          </mxGeometry>
        </mxCell>
        <mxCell id="FmT7gTH9NCa0adIjX3tE-216" value="" style="endArrow=ERoneToMany;html=1;rounded=0;entryX=0.5;entryY=0;entryDx=0;entryDy=0;endFill=0;exitX=0.5;exitY=1;exitDx=0;exitDy=0;" edge="1" parent="1" source="FmT7gTH9NCa0adIjX3tE-217" target="FmT7gTH9NCa0adIjX3tE-84">
          <mxGeometry relative="1" as="geometry">
            <mxPoint x="-635" y="260" as="sourcePoint" />
            <mxPoint x="-630" y="500" as="targetPoint" />
          </mxGeometry>
        </mxCell>
        <mxCell id="FmT7gTH9NCa0adIjX3tE-217" value="can create" style="shape=rhombus;perimeter=rhombusPerimeter;whiteSpace=wrap;html=1;align=center;" vertex="1" parent="1">
          <mxGeometry x="-660" y="180" width="120" height="60" as="geometry" />
        </mxCell>
        <mxCell id="FmT7gTH9NCa0adIjX3tE-218" value="" style="endArrow=none;html=1;rounded=0;exitX=0.5;exitY=0;exitDx=0;exitDy=0;startArrow=ERmandOne;startFill=0;entryX=0.5;entryY=1;entryDx=0;entryDy=0;" edge="1" parent="1" source="FmT7gTH9NCa0adIjX3tE-101" target="FmT7gTH9NCa0adIjX3tE-220">
          <mxGeometry relative="1" as="geometry">
            <mxPoint x="20" y="890" as="sourcePoint" />
            <mxPoint x="20" y="950" as="targetPoint" />
          </mxGeometry>
        </mxCell>
        <mxCell id="FmT7gTH9NCa0adIjX3tE-219" value="" style="endArrow=ERoneToMany;html=1;rounded=0;entryX=0.5;entryY=1;entryDx=0;entryDy=0;endFill=0;exitX=0.5;exitY=0;exitDx=0;exitDy=0;" edge="1" parent="1" source="FmT7gTH9NCa0adIjX3tE-220" target="FmT7gTH9NCa0adIjX3tE-118">
          <mxGeometry relative="1" as="geometry">
            <mxPoint x="20" y="920" as="sourcePoint" />
            <mxPoint y="1029" as="targetPoint" />
          </mxGeometry>
        </mxCell>
        <mxCell id="FmT7gTH9NCa0adIjX3tE-220" value="can be assigned" style="shape=rhombus;perimeter=rhombusPerimeter;whiteSpace=wrap;html=1;align=center;" vertex="1" parent="1">
          <mxGeometry x="-40" y="950" width="120" height="60" as="geometry" />
        </mxCell>
        <mxCell id="FmT7gTH9NCa0adIjX3tE-221" value="M" style="text;html=1;align=center;verticalAlign=middle;resizable=0;points=[];autosize=1;strokeColor=none;fillColor=none;" vertex="1" parent="1">
          <mxGeometry x="20" y="930" width="30" height="30" as="geometry" />
        </mxCell>
        <mxCell id="FmT7gTH9NCa0adIjX3tE-222" value="1" style="text;html=1;align=center;verticalAlign=middle;resizable=0;points=[];autosize=1;strokeColor=none;fillColor=none;" vertex="1" parent="1">
          <mxGeometry x="20" y="1003" width="30" height="30" as="geometry" />
        </mxCell>
        <mxCell id="FmT7gTH9NCa0adIjX3tE-223" value="1" style="text;html=1;align=center;verticalAlign=middle;resizable=0;points=[];autosize=1;strokeColor=none;fillColor=none;" vertex="1" parent="1">
          <mxGeometry x="-555" y="178" width="30" height="30" as="geometry" />
        </mxCell>
        <mxCell id="FmT7gTH9NCa0adIjX3tE-224" value="M" style="text;html=1;align=center;verticalAlign=middle;resizable=0;points=[];autosize=1;strokeColor=none;fillColor=none;" vertex="1" parent="1">
          <mxGeometry x="-590" y="230" width="30" height="30" as="geometry" />
        </mxCell>
        <mxCell id="FmT7gTH9NCa0adIjX3tE-225" value="1" style="text;html=1;align=center;verticalAlign=middle;resizable=0;points=[];autosize=1;strokeColor=none;fillColor=none;" vertex="1" parent="1">
          <mxGeometry x="505" y="178" width="30" height="30" as="geometry" />
        </mxCell>
        <mxCell id="FmT7gTH9NCa0adIjX3tE-226" value="M" style="text;html=1;align=center;verticalAlign=middle;resizable=0;points=[];autosize=1;strokeColor=none;fillColor=none;" vertex="1" parent="1">
          <mxGeometry x="540" y="235" width="30" height="30" as="geometry" />
        </mxCell>
        <mxCell id="FmT7gTH9NCa0adIjX3tE-227" value="" style="endArrow=none;html=1;rounded=0;exitX=1;exitY=0.5;exitDx=0;exitDy=0;startArrow=ERmandOne;startFill=0;entryX=0;entryY=0.5;entryDx=0;entryDy=0;" edge="1" parent="1" source="FmT7gTH9NCa0adIjX3tE-118" target="FmT7gTH9NCa0adIjX3tE-228">
          <mxGeometry relative="1" as="geometry">
            <mxPoint x="210" y="960" as="sourcePoint" />
            <mxPoint x="220" y="1080" as="targetPoint" />
            <Array as="points">
              <mxPoint x="220" y="840" />
              <mxPoint x="220" y="1078" />
            </Array>
          </mxGeometry>
        </mxCell>
        <mxCell id="FmT7gTH9NCa0adIjX3tE-228" value="&amp;nbsp;have" style="shape=rhombus;perimeter=rhombusPerimeter;whiteSpace=wrap;html=1;align=center;rotation=0;" vertex="1" parent="1">
          <mxGeometry x="300.00152422706634" y="1048.0007621135333" width="120" height="60" as="geometry" />
        </mxCell>
        <mxCell id="FmT7gTH9NCa0adIjX3tE-229" value="" style="endArrow=none;html=1;rounded=0;exitX=0;exitY=0.5;exitDx=0;exitDy=0;startArrow=ERmandOne;startFill=0;entryX=1;entryY=0.5;entryDx=0;entryDy=0;" edge="1" parent="1" source="FmT7gTH9NCa0adIjX3tE-169" target="FmT7gTH9NCa0adIjX3tE-228">
          <mxGeometry relative="1" as="geometry">
            <mxPoint x="430" y="1110" as="sourcePoint" />
            <mxPoint x="430" y="1050" as="targetPoint" />
          </mxGeometry>
        </mxCell>
        <mxCell id="FmT7gTH9NCa0adIjX3tE-230" value="1" style="text;html=1;align=center;verticalAlign=middle;resizable=0;points=[];autosize=1;strokeColor=none;fillColor=none;" vertex="1" parent="1">
          <mxGeometry x="405" y="1048" width="30" height="30" as="geometry" />
        </mxCell>
        <mxCell id="FmT7gTH9NCa0adIjX3tE-231" value="1" style="text;html=1;align=center;verticalAlign=middle;resizable=0;points=[];autosize=1;strokeColor=none;fillColor=none;" vertex="1" parent="1">
          <mxGeometry x="285" y="1048" width="30" height="30" as="geometry" />
        </mxCell>
        <mxCell id="FmT7gTH9NCa0adIjX3tE-232" value="" style="endArrow=none;html=1;rounded=0;exitX=1;exitY=0.5;exitDx=0;exitDy=0;startArrow=ERmandOne;startFill=0;entryX=0;entryY=0.5;entryDx=0;entryDy=0;" edge="1" parent="1" source="FmT7gTH9NCa0adIjX3tE-135" target="FmT7gTH9NCa0adIjX3tE-233">
          <mxGeometry relative="1" as="geometry">
            <mxPoint x="740" y="782" as="sourcePoint" />
            <mxPoint x="570" y="780" as="targetPoint" />
          </mxGeometry>
        </mxCell>
        <mxCell id="FmT7gTH9NCa0adIjX3tE-233" value="contains" style="shape=rhombus;perimeter=rhombusPerimeter;whiteSpace=wrap;html=1;align=center;" vertex="1" parent="1">
          <mxGeometry x="610" y="742" width="120" height="60" as="geometry" />
        </mxCell>
        <mxCell id="FmT7gTH9NCa0adIjX3tE-234" value="" style="endArrow=ERoneToMany;html=1;rounded=0;exitX=1;exitY=0.5;exitDx=0;exitDy=0;endFill=0;entryX=0;entryY=0.5;entryDx=0;entryDy=0;" edge="1" parent="1" source="FmT7gTH9NCa0adIjX3tE-233" target="FmT7gTH9NCa0adIjX3tE-152">
          <mxGeometry relative="1" as="geometry">
            <mxPoint x="760" y="771" as="sourcePoint" />
            <mxPoint x="810" y="790" as="targetPoint" />
          </mxGeometry>
        </mxCell>
        <mxCell id="FmT7gTH9NCa0adIjX3tE-235" value="1" style="text;html=1;align=center;verticalAlign=middle;resizable=0;points=[];autosize=1;strokeColor=none;fillColor=none;" vertex="1" parent="1">
          <mxGeometry x="585" y="738" width="30" height="30" as="geometry" />
        </mxCell>
        <mxCell id="FmT7gTH9NCa0adIjX3tE-236" value="M" style="text;html=1;align=center;verticalAlign=middle;resizable=0;points=[];autosize=1;strokeColor=none;fillColor=none;" vertex="1" parent="1">
          <mxGeometry x="715" y="738" width="30" height="30" as="geometry" />
        </mxCell>
        <mxCell id="FmT7gTH9NCa0adIjX3tE-238" value="belongs" style="shape=rhombus;perimeter=rhombusPerimeter;whiteSpace=wrap;html=1;align=center;" vertex="1" parent="1">
          <mxGeometry x="-860" y="810" width="120" height="60" as="geometry" />
        </mxCell>
        <mxCell id="FmT7gTH9NCa0adIjX3tE-239" value="" style="endArrow=ERoneToMany;html=1;rounded=0;entryX=1;entryY=0.5;entryDx=0;entryDy=0;endFill=0;exitX=0;exitY=0.5;exitDx=0;exitDy=0;" edge="1" parent="1" source="FmT7gTH9NCa0adIjX3tE-238" target="FmT7gTH9NCa0adIjX3tE-41">
          <mxGeometry relative="1" as="geometry">
            <mxPoint x="-860" y="790" as="sourcePoint" />
            <mxPoint x="-930" y="840" as="targetPoint" />
          </mxGeometry>
        </mxCell>
        <mxCell id="FmT7gTH9NCa0adIjX3tE-240" value="" style="endArrow=none;html=1;rounded=0;exitX=0;exitY=0.5;exitDx=0;exitDy=0;startArrow=ERmandOne;startFill=0;entryX=1;entryY=0.5;entryDx=0;entryDy=0;" edge="1" parent="1" source="FmT7gTH9NCa0adIjX3tE-28" target="FmT7gTH9NCa0adIjX3tE-238">
          <mxGeometry relative="1" as="geometry">
            <mxPoint x="-580" y="982" as="sourcePoint" />
            <mxPoint x="-820" y="980" as="targetPoint" />
          </mxGeometry>
        </mxCell>
        <mxCell id="FmT7gTH9NCa0adIjX3tE-241" value="M" style="text;html=1;align=center;verticalAlign=middle;resizable=0;points=[];autosize=1;strokeColor=none;fillColor=none;" vertex="1" parent="1">
          <mxGeometry x="-875" y="808" width="30" height="30" as="geometry" />
        </mxCell>
        <mxCell id="FmT7gTH9NCa0adIjX3tE-242" value="1" style="text;html=1;align=center;verticalAlign=middle;resizable=0;points=[];autosize=1;strokeColor=none;fillColor=none;" vertex="1" parent="1">
          <mxGeometry x="-745" y="808" width="30" height="30" as="geometry" />
        </mxCell>
        <mxCell id="FmT7gTH9NCa0adIjX3tE-243" value="" style="endArrow=none;html=1;rounded=0;startArrow=ERzeroToMany;startFill=0;entryX=1;entryY=0.5;entryDx=0;entryDy=0;exitX=1;exitY=0.5;exitDx=0;exitDy=0;" edge="1" parent="1" source="FmT7gTH9NCa0adIjX3tE-54" target="FmT7gTH9NCa0adIjX3tE-245">
          <mxGeometry relative="1" as="geometry">
            <mxPoint x="640" y="520" as="sourcePoint" />
            <mxPoint x="210" y="1238" as="targetPoint" />
            <Array as="points">
              <mxPoint x="1110" y="518" />
              <mxPoint x="1110" y="1280" />
            </Array>
          </mxGeometry>
        </mxCell>
        <mxCell id="FmT7gTH9NCa0adIjX3tE-245" value="role based" style="shape=rhombus;perimeter=rhombusPerimeter;whiteSpace=wrap;html=1;align=center;rotation=0;" vertex="1" parent="1">
          <mxGeometry x="180" y="1250" width="120" height="60" as="geometry" />
        </mxCell>
        <mxCell id="FmT7gTH9NCa0adIjX3tE-246" value="" style="endArrow=ERzeroToOne;html=1;rounded=0;entryX=0.5;entryY=1;entryDx=0;entryDy=0;endFill=0;exitX=0;exitY=0.5;exitDx=0;exitDy=0;" edge="1" parent="1" source="FmT7gTH9NCa0adIjX3tE-245" target="FmT7gTH9NCa0adIjX3tE-28">
          <mxGeometry relative="1" as="geometry">
            <mxPoint x="-460" y="1230" as="sourcePoint" />
            <mxPoint x="-460" y="1070" as="targetPoint" />
            <Array as="points">
              <mxPoint x="-480" y="1280" />
            </Array>
          </mxGeometry>
        </mxCell>
        <mxCell id="FmT7gTH9NCa0adIjX3tE-247" value="M" style="text;html=1;align=center;verticalAlign=middle;resizable=0;points=[];autosize=1;strokeColor=none;fillColor=none;" vertex="1" parent="1">
          <mxGeometry x="300" y="1250" width="30" height="30" as="geometry" />
        </mxCell>
        <mxCell id="FmT7gTH9NCa0adIjX3tE-248" value="0" style="text;html=1;align=center;verticalAlign=middle;resizable=0;points=[];autosize=1;strokeColor=none;fillColor=none;" vertex="1" parent="1">
          <mxGeometry x="150" y="1250" width="30" height="30" as="geometry" />
        </mxCell>
        <mxCell id="FmT7gTH9NCa0adIjX3tE-249" value="" style="endArrow=none;html=1;rounded=0;exitX=1;exitY=0.5;exitDx=0;exitDy=0;startArrow=ERzeroToOne;startFill=0;entryX=0;entryY=0.5;entryDx=0;entryDy=0;" edge="1" parent="1" source="FmT7gTH9NCa0adIjX3tE-28" target="FmT7gTH9NCa0adIjX3tE-251">
          <mxGeometry relative="1" as="geometry">
            <mxPoint x="-190" y="850" as="sourcePoint" />
            <mxPoint x="-270" y="840" as="targetPoint" />
          </mxGeometry>
        </mxCell>
        <mxCell id="FmT7gTH9NCa0adIjX3tE-250" value="" style="endArrow=ERzeroToMany;html=1;rounded=0;entryX=0;entryY=0.5;entryDx=0;entryDy=0;endFill=0;exitX=1;exitY=0.5;exitDx=0;exitDy=0;" edge="1" parent="1" source="FmT7gTH9NCa0adIjX3tE-251" target="FmT7gTH9NCa0adIjX3tE-118">
          <mxGeometry relative="1" as="geometry">
            <mxPoint x="-160" y="840" as="sourcePoint" />
            <mxPoint x="-230" y="952" as="targetPoint" />
          </mxGeometry>
        </mxCell>
        <mxCell id="FmT7gTH9NCa0adIjX3tE-251" value="role based" style="shape=rhombus;perimeter=rhombusPerimeter;whiteSpace=wrap;html=1;align=center;rotation=0;" vertex="1" parent="1">
          <mxGeometry x="-290" y="810" width="120" height="60" as="geometry" />
        </mxCell>
        <mxCell id="FmT7gTH9NCa0adIjX3tE-253" value="0" style="text;html=1;align=center;verticalAlign=middle;resizable=0;points=[];autosize=1;strokeColor=none;fillColor=none;" vertex="1" parent="1">
          <mxGeometry x="-305" y="806" width="30" height="30" as="geometry" />
        </mxCell>
        <mxCell id="FmT7gTH9NCa0adIjX3tE-254" value="M" style="text;html=1;align=center;verticalAlign=middle;resizable=0;points=[];autosize=1;strokeColor=none;fillColor=none;" vertex="1" parent="1">
          <mxGeometry x="-185" y="808" width="30" height="30" as="geometry" />
        </mxCell>
        <mxCell id="FmT7gTH9NCa0adIjX3tE-260" value="" style="endArrow=none;html=1;rounded=0;startArrow=ERzeroToMany;startFill=0;exitX=0.437;exitY=1.015;exitDx=0;exitDy=0;exitPerimeter=0;entryX=0.5;entryY=0;entryDx=0;entryDy=0;" edge="1" parent="1" source="FmT7gTH9NCa0adIjX3tE-135" target="FmT7gTH9NCa0adIjX3tE-261">
          <mxGeometry relative="1" as="geometry">
            <mxPoint x="380" y="820" as="sourcePoint" />
            <mxPoint x="1020" y="930" as="targetPoint" />
            <Array as="points">
              <mxPoint x="400" y="930" />
              <mxPoint x="1000" y="930" />
            </Array>
          </mxGeometry>
        </mxCell>
        <mxCell id="FmT7gTH9NCa0adIjX3tE-261" value="can manage" style="shape=rhombus;perimeter=rhombusPerimeter;whiteSpace=wrap;html=1;align=center;" vertex="1" parent="1">
          <mxGeometry x="940" y="973" width="120" height="60" as="geometry" />
        </mxCell>
        <mxCell id="FmT7gTH9NCa0adIjX3tE-262" value="M" style="text;html=1;align=center;verticalAlign=middle;resizable=0;points=[];autosize=1;strokeColor=none;fillColor=none;" vertex="1" parent="1">
          <mxGeometry x="995" y="948" width="30" height="30" as="geometry" />
        </mxCell>
        <mxCell id="FmT7gTH9NCa0adIjX3tE-263" value="0" style="text;html=1;align=center;verticalAlign=middle;resizable=0;points=[];autosize=1;strokeColor=none;fillColor=none;" vertex="1" parent="1">
          <mxGeometry x="1005" y="1028" width="30" height="30" as="geometry" />
        </mxCell>
        <mxCell id="FmT7gTH9NCa0adIjX3tE-264" value="" style="endArrow=none;html=1;rounded=0;exitX=0.75;exitY=1;exitDx=0;exitDy=0;startArrow=ERzeroToOne;startFill=0;entryX=0.5;entryY=1;entryDx=0;entryDy=0;" edge="1" parent="1" source="FmT7gTH9NCa0adIjX3tE-28" target="FmT7gTH9NCa0adIjX3tE-261">
          <mxGeometry relative="1" as="geometry">
            <mxPoint x="-425" y="1021.05" as="sourcePoint" />
            <mxPoint x="993.3333333333334" y="1240" as="targetPoint" />
            <Array as="points">
              <mxPoint x="-450" y="1240" />
              <mxPoint x="1000" y="1240" />
            </Array>
          </mxGeometry>
        </mxCell>
      </root>
    </mxGraphModel>
  </diagram>
</mxfile>
